{
  "asset": {
    "version": "2.0",
    "generator": "Iridium Engine M6.6 Cinematic8 overflow-residual fixture"
  },
  "extensionsUsed": [
    "KHR_materials_ior",
    "KHR_materials_transmission",
    "KHR_materials_volume"
  ],
  "buffers": [{
    "uri": "data:application/octet-stream;base64,",
    "byteLength": 152
  }],
  "bufferViews": [
    { "buffer": 0, "byteOffset": 0, "byteLength": 48, "target": 34962 },
    { "buffer": 0, "byteOffset": 48, "byteLength": 48, "target": 34962 },
    { "buffer": 0, "byteOffset": 96, "byteLength": 32, "target": 34962 },
    { "buffer": 0, "byteOffset": 128, "byteLength": 24, "target": 34963 }
  ],
  "accessors": [
    { "bufferView": 0, "componentType": 5126, "count": 4, "type": "VEC3", "min": [-0.8, -0.6, 0.0], "max": [0.8, 0.8, 1.2] },
    { "bufferView": 1, "componentType": 5126, "count": 4, "type": "VEC3" },
    { "bufferView": 2, "componentType": 5126, "count": 4, "type": "VEC2" },
    { "bufferView": 3, "componentType": 5123, "count": 12, "type": "SCALAR" }
  ],
  "materials": [{
    "name": "Cinematic overflow dielectric glass",
    "pbrMetallicRoughness": {
      "baseColorFactor": [0.88, 0.96, 1.0, 0.62],
      "metallicFactor": 0.0,
      "roughnessFactor": 0.06
    },
    "alphaMode": "BLEND",
    "doubleSided": true,
    "extensions": {
      "KHR_materials_ior": { "ior": 1.52 },
      "KHR_materials_transmission": { "transmissionFactor": 1.0 },
      "KHR_materials_volume": {
        "thicknessFactor": 0.8,
        "attenuationDistance": 2.0,
        "attenuationColor": [0.72, 0.92, 1.0]
      }
    }
  }],
  "meshes": [{
    "name": "closed_tetrahedron",
    "primitives": [{
      "attributes": { "POSITION": 0, "NORMAL": 1, "TEXCOORD_0": 2 },
      "indices": 3,
      "material": 0
    }]
  }],
  "nodes": [
    {
      "name": "cinematic8_overflow_shell_0",
      "mesh": 0,
      "scale": [0.40, 0.40, 0.40]
    },
    {
      "name": "cinematic8_overflow_shell_1",
      "mesh": 0,
      "scale": [0.32, 0.32, 0.32],
      "translation": [0.0, 0.003, 0.020]
    },
    {
      "name": "cinematic8_overflow_shell_2",
      "mesh": 0,
      "scale": [0.24, 0.24, 0.24],
      "translation": [0.0, 0.006, 0.040]
    },
    {
      "name": "cinematic8_overflow_shell_3",
      "mesh": 0,
      "scale": [0.16, 0.16, 0.16],
      "translation": [0.0, 0.009, 0.060]
    },
    {
      "name": "cinematic8_overflow_shell_4",
      "mesh": 0,
      "scale": [0.08, 0.08, 0.08],
      "translation": [0.0, 0.012, 0.080]
    }
  ],
  "scenes": [{
    "name": "m6_cinematic8_overflow_residual",
    "nodes": [0, 1, 2, 3, 4]
  }],
  "scene": 0
}
