{
  "asset": {
    "version": "2.0",
    "generator": "Iridium Engine M6.6 Hero4 early-termination fixture"
  },
  "extensionsUsed": [
    "KHR_materials_ior",
    "KHR_materials_transmission",
    "KHR_materials_volume"
  ],
  "buffers": [{
    "uri": "data:application/octet-stream;base64,",
    "byteLength": 152
  }],
  "bufferViews": [
    { "buffer": 0, "byteOffset": 0, "byteLength": 48, "target": 34962 },
    { "buffer": 0, "byteOffset": 48, "byteLength": 48, "target": 34962 },
    { "buffer": 0, "byteOffset": 96, "byteLength": 32, "target": 34962 },
    { "buffer": 0, "byteOffset": 128, "byteLength": 24, "target": 34963 }
  ],
  "accessors": [
    { "bufferView": 0, "componentType": 5126, "count": 4, "type": "VEC3", "min": [-0.8, -0.6, 0.0], "max": [0.8, 0.8, 1.2] },
    { "bufferView": 1, "componentType": 5126, "count": 4, "type": "VEC3" },
    { "bufferView": 2, "componentType": 5126, "count": 4, "type": "VEC2" },
    { "bufferView": 3, "componentType": 5123, "count": 12, "type": "SCALAR" }
  ],
  "materials": [{
    "name": "Hero4 conservative termination dielectric",
    "pbrMetallicRoughness": {
      "baseColorFactor": [0.75, 0.9, 1.0, 0.8],
      "metallicFactor": 0.0,
      "roughnessFactor": 0.08
    },
    "alphaMode": "BLEND",
    "doubleSided": true,
    "extensions": {
      "KHR_materials_ior": { "ior": 1.5 },
      "KHR_materials_transmission": { "transmissionFactor": 0.0005 },
      "KHR_materials_volume": {
        "thicknessFactor": 0.25,
        "attenuationDistance": 1.0,
        "attenuationColor": [0.8, 0.9, 1.0]
      }
    }
  }],
  "meshes": [{
    "name": "closed_tetrahedron",
    "primitives": [{
      "attributes": { "POSITION": 0, "NORMAL": 1, "TEXCOORD_0": 2 },
      "indices": 3,
      "material": 0
    }]
  }],
  "nodes": [
    {
      "name": "hero4_termination_front_shell",
      "mesh": 0,
      "scale": [0.25, 0.25, 0.25],
      "translation": [0.0, 0.0, -0.35]
    },
    {
      "name": "hero4_termination_deeper_shell",
      "mesh": 0,
      "scale": [0.25, 0.25, 0.25],
      "translation": [0.0, 0.0, 0.35]
    }
  ],
  "scenes": [{
    "name": "m6_hero4_early_termination",
    "nodes": [0, 1]
  }],
  "scene": 0
}
