{
  "asset": {
    "version": "2.0",
    "generator": "Iridium Engine M6.7 WeightedOIT HDR256 boundary fixture"
  },
  "extensionsUsed": [
    "KHR_materials_emissive_strength"
  ],
  "buffers": [{
    "uri": "data:application/octet-stream;base64,",
    "byteLength": 152
  }],
  "bufferViews": [
    { "buffer": 0, "byteOffset": 0, "byteLength": 48, "target": 34962 },
    { "buffer": 0, "byteOffset": 48, "byteLength": 48, "target": 34962 },
    { "buffer": 0, "byteOffset": 96, "byteLength": 32, "target": 34962 },
    { "buffer": 0, "byteOffset": 128, "byteLength": 24, "target": 34963 }
  ],
  "accessors": [
    { "bufferView": 0, "componentType": 5126, "count": 4, "type": "VEC3", "min": [-0.8, -0.6, 0.0], "max": [0.8, 0.8, 1.2] },
    { "bufferView": 1, "componentType": 5126, "count": 4, "type": "VEC3" },
    { "bufferView": 2, "componentType": 5126, "count": 4, "type": "VEC2" },
    { "bufferView": 3, "componentType": 5123, "count": 12, "type": "SCALAR" }
  ],
  "materials": [{
    "name": "Weighted OIT warm emissive particle",
    "pbrMetallicRoughness": {
      "baseColorFactor": [0.12, 0.32, 1.0, 0.18],
      "metallicFactor": 0.0,
      "roughnessFactor": 0.45
    },
    "emissiveFactor": [1.0, 0.15, 0.03],
    "alphaMode": "BLEND",
    "doubleSided": true,
    "extensions": {
      "KHR_materials_emissive_strength": { "emissiveStrength": 256.0 }
    }
  }],
  "meshes": [{
    "name": "weighted_oit_particle",
    "primitives": [{
      "attributes": { "POSITION": 0, "NORMAL": 1, "TEXCOORD_0": 2 },
      "indices": 3,
      "material": 0
    }]
  }],
  "nodes": [{
    "name": "weighted_oit_particle",
    "mesh": 0,
    "scale": [0.15, 0.15, 0.15]
  }],
  "scenes": [{
    "name": "m6_weighted_oit_particles_hdr256",
    "nodes": [0]
  }],
  "scene": 0
}
